<svg width="37" height="37" viewBox="0 0 37 37" fill="none" xmlns="http://www.w3.org/2000/svg">
<path d="M23.8958 7.70833C26.0611 7.70833 27.1437 7.70833 27.9214 8.22797C28.258 8.45292 28.5471 8.74199 28.772 9.07866C29.2917 9.85635 29.2917 10.939 29.2917 13.1042V27.75C29.2917 30.657 29.2917 32.1105 28.3886 33.0136C27.4855 33.9167 26.032 33.9167 23.125 33.9167H13.875C10.968 33.9167 9.51452 33.9167 8.61143 33.0136C7.70834 32.1105 7.70834 30.657 7.70834 27.75V13.1042C7.70834 10.939 7.70834 9.85635 8.22798 9.07866C8.45293 8.74199 8.742 8.45292 9.07867 8.22797C9.85636 7.70833 10.939 7.70833 13.1042 7.70833" stroke="#473BF0" stroke-width="2"/>
<path d="M13.875 7.70833C13.875 6.00546 15.2555 4.625 16.9583 4.625H20.0417C21.7445 4.625 23.125 6.00546 23.125 7.70833C23.125 9.41121 21.7445 10.7917 20.0417 10.7917H16.9583C15.2555 10.7917 13.875 9.41121 13.875 7.70833Z" stroke="#473BF0" stroke-width="2"/>
<path d="M13.875 18.5L23.125 18.5" stroke="#473BF0" stroke-width="2" stroke-linecap="round"/>
<path d="M13.875 24.6667L20.0417 24.6667" stroke="#473BF0" stroke-width="2" stroke-linecap="round"/>
</svg>
