<svg width="37" height="37" viewBox="0 0 37 37" fill="none" xmlns="http://www.w3.org/2000/svg">
<path fill-rule="evenodd" clip-rule="evenodd" d="M11.3774 6.75253C10.7916 7.33832 10.7916 8.28113 10.7916 10.1668V10.3334H13.875C14.9795 10.3334 15.875 11.2288 15.875 12.3334C15.875 13.438 14.9795 14.3334 13.875 14.3334H10.7916V18.0417H13.875C14.9795 18.0417 15.875 18.9372 15.875 20.0417C15.875 21.1463 14.9795 22.0417 13.875 22.0417H10.7916V25.7501H13.875C14.9795 25.7501 15.875 26.6455 15.875 27.7501C15.875 28.8547 14.9795 29.7501 13.875 29.7501H10.8045C10.8376 30.7607 10.9557 31.3675 11.3774 31.7893C11.9632 32.3751 12.906 32.3751 14.7916 32.3751H26.8333C28.7189 32.3751 29.6617 32.3751 30.2475 31.7893C30.8333 31.2035 30.8333 30.2607 30.8333 28.3751V10.1667C30.8333 8.28113 30.8333 7.33832 30.2475 6.75253C29.6617 6.16675 28.7189 6.16675 26.8333 6.16675H14.7916C12.906 6.16675 11.9632 6.16675 11.3774 6.75253ZM24.6666 16.4167C24.1143 16.4167 23.6666 15.969 23.6666 15.4167V12.3334C23.6666 11.7811 24.1143 11.3334 24.6666 11.3334C25.2189 11.3334 25.6666 11.7811 25.6666 12.3334V15.4167C25.6666 15.969 25.2189 16.4167 24.6666 16.4167ZM7.70825 11.3334C7.15597 11.3334 6.70825 11.7811 6.70825 12.3334C6.70825 12.8857 7.15597 13.3334 7.70825 13.3334H13.8749C14.4272 13.3334 14.8749 12.8857 14.8749 12.3334C14.8749 11.7811 14.4272 11.3334 13.8749 11.3334H7.70825ZM7.70825 19.0417C7.15597 19.0417 6.70825 19.4895 6.70825 20.0417C6.70825 20.594 7.15597 21.0417 7.70825 21.0417H13.8749C14.4272 21.0417 14.8749 20.594 14.8749 20.0417C14.8749 19.4895 14.4272 19.0417 13.8749 19.0417H7.70825ZM7.70825 26.7501C7.15597 26.7501 6.70825 27.1978 6.70825 27.7501C6.70825 28.3024 7.15597 28.7501 7.70825 28.7501H13.8749C14.4272 28.7501 14.8749 28.3024 14.8749 27.7501C14.8749 27.1978 14.4272 26.7501 13.8749 26.7501H7.70825Z" fill="#473BF0"/>
</svg>
