<svg width="37" height="37" viewBox="0 0 37 37" fill="none" xmlns="http://www.w3.org/2000/svg">
<path fill-rule="evenodd" clip-rule="evenodd" d="M18.5 3.625C14.9335 3.625 11.87 5.76881 10.5236 8.83396C10.3365 9.25983 10.2198 9.52356 10.122 9.70542C10.1073 9.7328 10.0944 9.75541 10.0835 9.77388L10.0641 9.77587C9.91008 9.79059 9.69398 9.79167 9.31105 9.79167H9.25C6.1434 9.79167 3.625 12.3101 3.625 15.4167C3.625 18.5233 6.1434 21.0417 9.25 21.0417H11.5882L13.5882 19.0417H9.25C7.24797 19.0417 5.625 17.4187 5.625 15.4167C5.625 13.4146 7.24797 11.7917 9.25 11.7917H9.31105L9.35042 11.7917H9.35046C9.67949 11.7917 9.9934 11.7917 10.2544 11.7668C10.5367 11.7398 10.8759 11.6755 11.1963 11.4663C11.5406 11.2415 11.7457 10.9089 11.8834 10.6528C12.0237 10.3919 12.1724 10.0533 12.3393 9.67329L12.3547 9.63832C13.3935 7.2734 15.7554 5.625 18.5 5.625C21.2446 5.625 23.6065 7.2734 24.6453 9.63832L24.6607 9.67328C24.8276 10.0533 24.9763 10.3919 25.1166 10.6528C25.2543 10.9089 25.4594 11.2415 25.8037 11.4663C26.1241 11.6755 26.4633 11.7398 26.7456 11.7668C27.0066 11.7917 27.3205 11.7917 27.6495 11.7917H27.6496L27.6889 11.7917H28.375C30.0319 11.7917 31.375 13.1348 31.375 14.7917V16.0417C31.375 17.6985 30.0319 19.0417 28.375 19.0417H23.4118L25.4118 21.0417H28.375C31.1364 21.0417 33.375 18.8031 33.375 16.0417V14.7917C33.375 12.0302 31.1364 9.79167 28.375 9.79167H27.6889C27.306 9.79167 27.0899 9.79059 26.9359 9.77587L26.9165 9.77388C26.9056 9.75541 26.8927 9.7328 26.878 9.70542C26.7802 9.52356 26.6635 9.25983 26.4764 8.83395C25.13 5.76881 22.0665 3.625 18.5 3.625Z" fill="#473BF0"/>
<path d="M18.4999 18.5L17.7928 17.7929L18.4999 17.0858L19.207 17.7929L18.4999 18.5ZM19.4999 32.375C19.4999 32.9273 19.0522 33.375 18.4999 33.375C17.9476 33.375 17.4999 32.9273 17.4999 32.375L19.4999 32.375ZM11.6261 23.9596L17.7928 17.7929L19.207 19.2071L13.0404 25.3738L11.6261 23.9596ZM19.207 17.7929L25.3737 23.9596L23.9595 25.3738L17.7928 19.2071L19.207 17.7929ZM19.4999 18.5L19.4999 32.375L17.4999 32.375L17.4999 18.5L19.4999 18.5Z" fill="#473BF0"/>
</svg>
