<svg width="37" height="37" viewBox="0 0 37 37" fill="none" xmlns="http://www.w3.org/2000/svg">
<path d="M21.0293 23.1377C21.0293 22.4437 20.8346 21.8936 20.4453 21.4873C20.0645 21.0726 19.4128 20.6917 18.4902 20.3447C17.5677 19.9977 16.7721 19.6549 16.1035 19.3164C15.4349 18.9694 14.8594 18.5758 14.377 18.1357C13.903 17.6872 13.5306 17.1624 13.2598 16.5615C12.9974 15.9606 12.8662 15.2454 12.8662 14.416C12.8662 12.9857 13.3232 11.8135 14.2373 10.8994C15.1514 9.98535 16.3659 9.45215 17.8809 9.2998V6.58301H19.9121V9.33789C21.4102 9.54948 22.5824 10.1758 23.4287 11.2168C24.2751 12.2493 24.6982 13.5908 24.6982 15.2412H21.0293C21.0293 14.2256 20.8177 13.4681 20.3945 12.9688C19.9798 12.4609 19.4212 12.207 18.7188 12.207C18.0247 12.207 17.4873 12.4059 17.1064 12.8037C16.7256 13.193 16.5352 13.7347 16.5352 14.4287C16.5352 15.0719 16.7214 15.5882 17.0938 15.9775C17.4661 16.3669 18.1559 16.7646 19.1631 17.1709C20.1787 17.5771 21.0124 17.9622 21.6641 18.3262C22.3158 18.6816 22.8659 19.0879 23.3145 19.5449C23.763 19.9935 24.1058 20.5098 24.3428 21.0938C24.5798 21.6693 24.6982 22.3421 24.6982 23.1123C24.6982 24.5511 24.2497 25.7191 23.3525 26.6162C22.4554 27.5133 21.2197 28.0423 19.6455 28.2031V30.7295H17.627V28.2158C15.8919 28.0296 14.5462 27.416 13.5898 26.375C12.6419 25.3255 12.168 23.9333 12.168 22.1982H15.8369C15.8369 23.2054 16.0739 23.9798 16.5479 24.5215C17.0303 25.0547 17.7201 25.3213 18.6172 25.3213C19.362 25.3213 19.9502 25.1266 20.3818 24.7373C20.8135 24.3395 21.0293 23.8063 21.0293 23.1377Z" fill="#473BF0"/>
</svg>
