<svg width="37" height="37" viewBox="0 0 37 37" fill="none" xmlns="http://www.w3.org/2000/svg">
<path fill-rule="evenodd" clip-rule="evenodd" d="M26.0833 6.62499H30.9583C32.339 6.62499 33.4583 7.74428 33.4583 9.12499V16.9583H23.5833V9.125C23.5833 7.74428 24.7025 6.62499 26.0833 6.62499ZM26.0737 4.625C26.0217 4.625 25.9693 4.625 25.9166 4.625H24.6666L7.08326 4.625C5.19764 4.625 4.25482 4.625 3.66904 5.21079C3.08325 5.79657 3.08325 6.73938 3.08325 8.625L3.08325 32.375L7.70825 30.8333L12.3333 32.375L16.9583 30.8333L21.4309 32.3242L21.5833 16.9589V9.125C21.5833 6.64289 23.5928 4.63015 26.0737 4.625ZM6.70825 10.7917C6.70825 10.2394 7.15597 9.79166 7.70825 9.79166H16.9583C17.5105 9.79166 17.9583 10.2394 17.9583 10.7917C17.9583 11.3439 17.5105 11.7917 16.9583 11.7917H7.70825C7.15597 11.7917 6.70825 11.3439 6.70825 10.7917ZM6.70825 16.9583C6.70825 16.406 7.15597 15.9583 7.70825 15.9583H10.7916C11.3439 15.9583 11.7916 16.406 11.7916 16.9583C11.7916 17.5106 11.3439 17.9583 10.7916 17.9583H7.70825C7.15597 17.9583 6.70825 17.5106 6.70825 16.9583ZM6.70825 23.125C6.70825 22.5727 7.15597 22.125 7.70825 22.125H13.8749C14.4272 22.125 14.8749 22.5727 14.8749 23.125C14.8749 23.6773 14.4272 24.125 13.8749 24.125H7.70825C7.15597 24.125 6.70825 23.6773 6.70825 23.125Z" fill="#473BF0"/>
</svg>
